<mxfile host="Electron" modified="2024-07-30T19:14:59.774Z" agent="Mozilla/5.0 (Windows NT 10.0; Win64; x64) AppleWebKit/537.36 (KHTML, like Gecko) draw.io/22.1.16 Chrome/120.0.6099.109 Electron/28.1.0 Safari/537.36" etag="FL2wTZFvzx95WYZRrflC" version="22.1.16" type="device">
  <diagram name="Page-1" id="JtSEoqSY3P67cDWs4eRp">
    <mxGraphModel dx="1418" dy="660" grid="1" gridSize="10" guides="1" tooltips="1" connect="1" arrows="1" fold="1" page="1" pageScale="1" pageWidth="800" pageHeight="280" math="0" shadow="0">
      <root>
        <mxCell id="0" />
        <mxCell id="1" parent="0" />
        <mxCell id="sDIMK2-kgTZMhIiAH838-79" value="" style="endArrow=none;dashed=1;html=1;dashPattern=1 3;strokeWidth=2;rounded=0;" parent="1" edge="1">
          <mxGeometry width="50" height="50" relative="1" as="geometry">
            <mxPoint x="255" y="463" as="sourcePoint" />
            <mxPoint x="254.9" y="543" as="targetPoint" />
          </mxGeometry>
        </mxCell>
        <mxCell id="sDIMK2-kgTZMhIiAH838-78" value="" style="endArrow=none;dashed=1;html=1;dashPattern=1 3;strokeWidth=2;rounded=0;" parent="1" edge="1">
          <mxGeometry width="50" height="50" relative="1" as="geometry">
            <mxPoint x="403" y="448" as="sourcePoint" />
            <mxPoint x="403" y="538" as="targetPoint" />
          </mxGeometry>
        </mxCell>
        <mxCell id="sDIMK2-kgTZMhIiAH838-5" style="edgeStyle=orthogonalEdgeStyle;rounded=0;orthogonalLoop=1;jettySize=auto;html=1;exitX=0.5;exitY=0;exitDx=0;exitDy=0;entryX=0.5;entryY=1;entryDx=0;entryDy=0;endArrow=none;endFill=0;" parent="1" source="sDIMK2-kgTZMhIiAH838-3" target="sDIMK2-kgTZMhIiAH838-4" edge="1">
          <mxGeometry relative="1" as="geometry" />
        </mxCell>
        <mxCell id="sDIMK2-kgTZMhIiAH838-3" value="Machine d&#39;Anticythère" style="rounded=1;whiteSpace=wrap;html=1;" parent="1" vertex="1">
          <mxGeometry x="40" y="400" width="110" height="40" as="geometry" />
        </mxCell>
        <mxCell id="sDIMK2-kgTZMhIiAH838-66" style="edgeStyle=orthogonalEdgeStyle;rounded=0;orthogonalLoop=1;jettySize=auto;html=1;exitX=1;exitY=0.5;exitDx=0;exitDy=0;endArrow=none;endFill=0;" parent="1" source="sDIMK2-kgTZMhIiAH838-4" target="sDIMK2-kgTZMhIiAH838-33" edge="1">
          <mxGeometry relative="1" as="geometry" />
        </mxCell>
        <mxCell id="sDIMK2-kgTZMhIiAH838-77" style="edgeStyle=orthogonalEdgeStyle;rounded=0;orthogonalLoop=1;jettySize=auto;html=1;exitX=0;exitY=0.5;exitDx=0;exitDy=0;endArrow=none;endFill=0;" parent="1" source="sDIMK2-kgTZMhIiAH838-4" edge="1">
          <mxGeometry relative="1" as="geometry">
            <mxPoint x="30" y="365" as="targetPoint" />
          </mxGeometry>
        </mxCell>
        <mxCell id="sDIMK2-kgTZMhIiAH838-4" value="" style="ellipse;whiteSpace=wrap;html=1;aspect=fixed;" parent="1" vertex="1">
          <mxGeometry x="90" y="360" width="10" height="10" as="geometry" />
        </mxCell>
        <mxCell id="sDIMK2-kgTZMhIiAH838-6" style="edgeStyle=orthogonalEdgeStyle;rounded=0;orthogonalLoop=1;jettySize=auto;html=1;exitX=0.5;exitY=0;exitDx=0;exitDy=0;entryX=0.5;entryY=1;entryDx=0;entryDy=0;endArrow=none;endFill=0;" parent="1" source="sDIMK2-kgTZMhIiAH838-7" target="sDIMK2-kgTZMhIiAH838-8" edge="1">
          <mxGeometry relative="1" as="geometry" />
        </mxCell>
        <mxCell id="sDIMK2-kgTZMhIiAH838-7" value="La Pascaline" style="rounded=1;whiteSpace=wrap;html=1;" parent="1" vertex="1">
          <mxGeometry x="220" y="400" width="70" height="40" as="geometry" />
        </mxCell>
        <mxCell id="sDIMK2-kgTZMhIiAH838-68" style="edgeStyle=orthogonalEdgeStyle;rounded=0;orthogonalLoop=1;jettySize=auto;html=1;exitX=1;exitY=0.5;exitDx=0;exitDy=0;entryX=0;entryY=0.5;entryDx=0;entryDy=0;endArrow=none;endFill=0;" parent="1" source="sDIMK2-kgTZMhIiAH838-8" target="sDIMK2-kgTZMhIiAH838-11" edge="1">
          <mxGeometry relative="1" as="geometry" />
        </mxCell>
        <mxCell id="sDIMK2-kgTZMhIiAH838-8" value="" style="ellipse;whiteSpace=wrap;html=1;aspect=fixed;" parent="1" vertex="1">
          <mxGeometry x="250" y="360" width="10" height="10" as="geometry" />
        </mxCell>
        <mxCell id="sDIMK2-kgTZMhIiAH838-13" value="1642" style="text;strokeColor=none;align=center;fillColor=none;html=1;verticalAlign=middle;whiteSpace=wrap;rounded=0;" parent="1" vertex="1">
          <mxGeometry x="225" y="330" width="60" height="30" as="geometry" />
        </mxCell>
        <mxCell id="sDIMK2-kgTZMhIiAH838-31" style="edgeStyle=orthogonalEdgeStyle;rounded=0;orthogonalLoop=1;jettySize=auto;html=1;endArrow=none;endFill=0;" parent="1" source="sDIMK2-kgTZMhIiAH838-32" target="sDIMK2-kgTZMhIiAH838-33" edge="1">
          <mxGeometry relative="1" as="geometry">
            <mxPoint x="235" y="370" as="targetPoint" />
          </mxGeometry>
        </mxCell>
        <mxCell id="sDIMK2-kgTZMhIiAH838-32" value="Bâtons de Napier" style="rounded=1;whiteSpace=wrap;html=1;" parent="1" vertex="1">
          <mxGeometry x="175" y="290" width="110" height="40" as="geometry" />
        </mxCell>
        <mxCell id="sDIMK2-kgTZMhIiAH838-67" style="edgeStyle=orthogonalEdgeStyle;rounded=0;orthogonalLoop=1;jettySize=auto;html=1;exitX=1;exitY=0.5;exitDx=0;exitDy=0;entryX=0;entryY=0.5;entryDx=0;entryDy=0;endArrow=none;endFill=0;" parent="1" source="sDIMK2-kgTZMhIiAH838-33" target="sDIMK2-kgTZMhIiAH838-8" edge="1">
          <mxGeometry relative="1" as="geometry" />
        </mxCell>
        <mxCell id="sDIMK2-kgTZMhIiAH838-33" value="" style="ellipse;whiteSpace=wrap;html=1;aspect=fixed;" parent="1" vertex="1">
          <mxGeometry x="225" y="360" width="10" height="10" as="geometry" />
        </mxCell>
        <mxCell id="sDIMK2-kgTZMhIiAH838-34" value="1617" style="text;strokeColor=none;align=center;fillColor=none;html=1;verticalAlign=middle;whiteSpace=wrap;rounded=0;" parent="1" vertex="1">
          <mxGeometry x="200" y="370" width="60" height="30" as="geometry" />
        </mxCell>
        <mxCell id="sDIMK2-kgTZMhIiAH838-47" style="edgeStyle=orthogonalEdgeStyle;rounded=0;orthogonalLoop=1;jettySize=auto;html=1;endArrow=none;endFill=0;" parent="1" source="sDIMK2-kgTZMhIiAH838-48" target="sDIMK2-kgTZMhIiAH838-49" edge="1">
          <mxGeometry relative="1" as="geometry">
            <mxPoint x="690" y="370" as="targetPoint" />
          </mxGeometry>
        </mxCell>
        <mxCell id="sDIMK2-kgTZMhIiAH838-48" value="Le Frontier&lt;br&gt;OLCF-5" style="rounded=1;whiteSpace=wrap;html=1;" parent="1" vertex="1">
          <mxGeometry x="630" y="290" width="110" height="40" as="geometry" />
        </mxCell>
        <mxCell id="sDIMK2-kgTZMhIiAH838-76" style="edgeStyle=orthogonalEdgeStyle;rounded=0;orthogonalLoop=1;jettySize=auto;html=1;exitX=1;exitY=0.5;exitDx=0;exitDy=0;" parent="1" source="sDIMK2-kgTZMhIiAH838-49" edge="1">
          <mxGeometry relative="1" as="geometry">
            <mxPoint x="760" y="365" as="targetPoint" />
          </mxGeometry>
        </mxCell>
        <mxCell id="sDIMK2-kgTZMhIiAH838-49" value="" style="ellipse;whiteSpace=wrap;html=1;aspect=fixed;" parent="1" vertex="1">
          <mxGeometry x="680" y="360" width="10" height="10" as="geometry" />
        </mxCell>
        <mxCell id="sDIMK2-kgTZMhIiAH838-50" value="2022" style="text;strokeColor=none;align=center;fillColor=none;html=1;verticalAlign=middle;whiteSpace=wrap;rounded=0;" parent="1" vertex="1">
          <mxGeometry x="655" y="370" width="60" height="30" as="geometry" />
        </mxCell>
        <mxCell id="sDIMK2-kgTZMhIiAH838-51" value="" style="group" parent="1" vertex="1" connectable="0">
          <mxGeometry x="610" y="330" width="110" height="110" as="geometry" />
        </mxCell>
        <mxCell id="sDIMK2-kgTZMhIiAH838-44" value="Le Behold Summit" style="rounded=1;whiteSpace=wrap;html=1;" parent="sDIMK2-kgTZMhIiAH838-51" vertex="1">
          <mxGeometry y="70" width="110" height="40" as="geometry" />
        </mxCell>
        <mxCell id="sDIMK2-kgTZMhIiAH838-45" value="" style="ellipse;whiteSpace=wrap;html=1;aspect=fixed;" parent="sDIMK2-kgTZMhIiAH838-51" vertex="1">
          <mxGeometry x="50" y="30" width="10" height="10" as="geometry" />
        </mxCell>
        <mxCell id="sDIMK2-kgTZMhIiAH838-43" style="edgeStyle=orthogonalEdgeStyle;rounded=0;orthogonalLoop=1;jettySize=auto;html=1;exitX=0.5;exitY=0;exitDx=0;exitDy=0;entryX=0.5;entryY=1;entryDx=0;entryDy=0;endArrow=none;endFill=0;" parent="sDIMK2-kgTZMhIiAH838-51" source="sDIMK2-kgTZMhIiAH838-44" target="sDIMK2-kgTZMhIiAH838-45" edge="1">
          <mxGeometry relative="1" as="geometry" />
        </mxCell>
        <mxCell id="sDIMK2-kgTZMhIiAH838-46" value="2018" style="text;strokeColor=none;align=center;fillColor=none;html=1;verticalAlign=middle;whiteSpace=wrap;rounded=0;" parent="sDIMK2-kgTZMhIiAH838-51" vertex="1">
          <mxGeometry x="25" width="60" height="30" as="geometry" />
        </mxCell>
        <mxCell id="sDIMK2-kgTZMhIiAH838-53" value="" style="group" parent="1" vertex="1" connectable="0">
          <mxGeometry x="530" y="290" width="110" height="110" as="geometry" />
        </mxCell>
        <mxCell id="sDIMK2-kgTZMhIiAH838-36" value="Le PDP-8" style="rounded=1;whiteSpace=wrap;html=1;" parent="sDIMK2-kgTZMhIiAH838-53" vertex="1">
          <mxGeometry x="20" width="70" height="40" as="geometry" />
        </mxCell>
        <mxCell id="sDIMK2-kgTZMhIiAH838-37" value="" style="ellipse;whiteSpace=wrap;html=1;aspect=fixed;" parent="sDIMK2-kgTZMhIiAH838-53" vertex="1">
          <mxGeometry x="50" y="70" width="10" height="10" as="geometry" />
        </mxCell>
        <mxCell id="sDIMK2-kgTZMhIiAH838-35" style="edgeStyle=orthogonalEdgeStyle;rounded=0;orthogonalLoop=1;jettySize=auto;html=1;endArrow=none;endFill=0;" parent="sDIMK2-kgTZMhIiAH838-53" source="sDIMK2-kgTZMhIiAH838-36" target="sDIMK2-kgTZMhIiAH838-37" edge="1">
          <mxGeometry relative="1" as="geometry">
            <mxPoint x="60" y="80" as="targetPoint" />
          </mxGeometry>
        </mxCell>
        <mxCell id="sDIMK2-kgTZMhIiAH838-38" value="1965" style="text;strokeColor=none;align=center;fillColor=none;html=1;verticalAlign=middle;whiteSpace=wrap;rounded=0;" parent="sDIMK2-kgTZMhIiAH838-53" vertex="1">
          <mxGeometry x="25" y="80" width="60" height="30" as="geometry" />
        </mxCell>
        <mxCell id="sDIMK2-kgTZMhIiAH838-54" value="" style="group" parent="1" vertex="1" connectable="0">
          <mxGeometry x="490" y="330" width="110" height="110" as="geometry" />
        </mxCell>
        <mxCell id="sDIMK2-kgTZMhIiAH838-28" value="L&#39;ENIAC" style="rounded=1;whiteSpace=wrap;html=1;" parent="sDIMK2-kgTZMhIiAH838-54" vertex="1">
          <mxGeometry x="20" y="70" width="70" height="40" as="geometry" />
        </mxCell>
        <mxCell id="sDIMK2-kgTZMhIiAH838-29" value="" style="ellipse;whiteSpace=wrap;html=1;aspect=fixed;" parent="sDIMK2-kgTZMhIiAH838-54" vertex="1">
          <mxGeometry x="50" y="30" width="10" height="10" as="geometry" />
        </mxCell>
        <mxCell id="sDIMK2-kgTZMhIiAH838-27" style="edgeStyle=orthogonalEdgeStyle;rounded=0;orthogonalLoop=1;jettySize=auto;html=1;exitX=0.5;exitY=0;exitDx=0;exitDy=0;entryX=0.5;entryY=1;entryDx=0;entryDy=0;endArrow=none;endFill=0;" parent="sDIMK2-kgTZMhIiAH838-54" source="sDIMK2-kgTZMhIiAH838-28" target="sDIMK2-kgTZMhIiAH838-29" edge="1">
          <mxGeometry relative="1" as="geometry" />
        </mxCell>
        <mxCell id="sDIMK2-kgTZMhIiAH838-30" value="1945" style="text;strokeColor=none;align=center;fillColor=none;html=1;verticalAlign=middle;whiteSpace=wrap;rounded=0;" parent="sDIMK2-kgTZMhIiAH838-54" vertex="1">
          <mxGeometry x="25" width="60" height="30" as="geometry" />
        </mxCell>
        <mxCell id="sDIMK2-kgTZMhIiAH838-55" value="" style="group" parent="1" vertex="1" connectable="0">
          <mxGeometry x="450" y="290" width="95" height="110" as="geometry" />
        </mxCell>
        <mxCell id="sDIMK2-kgTZMhIiAH838-24" value="l&#39;ASCC d&#39;IBM" style="rounded=1;whiteSpace=wrap;html=1;" parent="sDIMK2-kgTZMhIiAH838-55" vertex="1">
          <mxGeometry width="95" height="40" as="geometry" />
        </mxCell>
        <mxCell id="sDIMK2-kgTZMhIiAH838-25" value="" style="ellipse;whiteSpace=wrap;html=1;aspect=fixed;" parent="sDIMK2-kgTZMhIiAH838-55" vertex="1">
          <mxGeometry x="42.5" y="70" width="10" height="10" as="geometry" />
        </mxCell>
        <mxCell id="sDIMK2-kgTZMhIiAH838-23" style="edgeStyle=orthogonalEdgeStyle;rounded=0;orthogonalLoop=1;jettySize=auto;html=1;endArrow=none;endFill=0;" parent="sDIMK2-kgTZMhIiAH838-55" source="sDIMK2-kgTZMhIiAH838-24" target="sDIMK2-kgTZMhIiAH838-25" edge="1">
          <mxGeometry relative="1" as="geometry">
            <mxPoint x="52.5" y="80" as="targetPoint" />
          </mxGeometry>
        </mxCell>
        <mxCell id="sDIMK2-kgTZMhIiAH838-26" value="1937" style="text;strokeColor=none;align=center;fillColor=none;html=1;verticalAlign=middle;whiteSpace=wrap;rounded=0;" parent="sDIMK2-kgTZMhIiAH838-55" vertex="1">
          <mxGeometry x="17.5" y="80" width="60" height="30" as="geometry" />
        </mxCell>
        <mxCell id="sDIMK2-kgTZMhIiAH838-56" value="" style="group" parent="1" vertex="1" connectable="0">
          <mxGeometry x="360" y="330" width="110" height="110" as="geometry" />
        </mxCell>
        <mxCell id="sDIMK2-kgTZMhIiAH838-15" value="Machine analytique Charles Babbage" style="rounded=1;whiteSpace=wrap;html=1;" parent="sDIMK2-kgTZMhIiAH838-56" vertex="1">
          <mxGeometry y="70" width="110" height="40" as="geometry" />
        </mxCell>
        <mxCell id="sDIMK2-kgTZMhIiAH838-16" value="" style="ellipse;whiteSpace=wrap;html=1;aspect=fixed;" parent="sDIMK2-kgTZMhIiAH838-56" vertex="1">
          <mxGeometry x="50" y="30" width="10" height="10" as="geometry" />
        </mxCell>
        <mxCell id="sDIMK2-kgTZMhIiAH838-14" style="edgeStyle=orthogonalEdgeStyle;rounded=0;orthogonalLoop=1;jettySize=auto;html=1;exitX=0.5;exitY=0;exitDx=0;exitDy=0;entryX=0.5;entryY=1;entryDx=0;entryDy=0;endArrow=none;endFill=0;" parent="sDIMK2-kgTZMhIiAH838-56" source="sDIMK2-kgTZMhIiAH838-15" target="sDIMK2-kgTZMhIiAH838-16" edge="1">
          <mxGeometry relative="1" as="geometry" />
        </mxCell>
        <mxCell id="sDIMK2-kgTZMhIiAH838-17" value="1837" style="text;strokeColor=none;align=center;fillColor=none;html=1;verticalAlign=middle;whiteSpace=wrap;rounded=0;" parent="sDIMK2-kgTZMhIiAH838-56" vertex="1">
          <mxGeometry x="25" width="60" height="30" as="geometry" />
        </mxCell>
        <mxCell id="sDIMK2-kgTZMhIiAH838-57" value="" style="group" parent="1" vertex="1" connectable="0">
          <mxGeometry x="300" y="290" width="110" height="110" as="geometry" />
        </mxCell>
        <mxCell id="sDIMK2-kgTZMhIiAH838-10" value="Métier à tisser Jacquard" style="rounded=1;whiteSpace=wrap;html=1;" parent="sDIMK2-kgTZMhIiAH838-57" vertex="1">
          <mxGeometry width="110" height="40" as="geometry" />
        </mxCell>
        <mxCell id="sDIMK2-kgTZMhIiAH838-11" value="" style="ellipse;whiteSpace=wrap;html=1;aspect=fixed;" parent="sDIMK2-kgTZMhIiAH838-57" vertex="1">
          <mxGeometry x="50" y="70" width="10" height="10" as="geometry" />
        </mxCell>
        <mxCell id="sDIMK2-kgTZMhIiAH838-9" style="edgeStyle=orthogonalEdgeStyle;rounded=0;orthogonalLoop=1;jettySize=auto;html=1;endArrow=none;endFill=0;" parent="sDIMK2-kgTZMhIiAH838-57" source="sDIMK2-kgTZMhIiAH838-10" target="sDIMK2-kgTZMhIiAH838-11" edge="1">
          <mxGeometry relative="1" as="geometry">
            <mxPoint x="60" y="80" as="targetPoint" />
          </mxGeometry>
        </mxCell>
        <mxCell id="sDIMK2-kgTZMhIiAH838-12" value="1801" style="text;strokeColor=none;align=center;fillColor=none;html=1;verticalAlign=middle;whiteSpace=wrap;rounded=0;" parent="sDIMK2-kgTZMhIiAH838-57" vertex="1">
          <mxGeometry x="25" y="80" width="60" height="30" as="geometry" />
        </mxCell>
        <mxCell id="sDIMK2-kgTZMhIiAH838-58" value="-87" style="text;strokeColor=none;align=center;fillColor=none;html=1;verticalAlign=middle;whiteSpace=wrap;rounded=0;" parent="1" vertex="1">
          <mxGeometry x="65" y="330" width="60" height="30" as="geometry" />
        </mxCell>
        <mxCell id="sDIMK2-kgTZMhIiAH838-65" value="" style="group" parent="1" vertex="1" connectable="0">
          <mxGeometry x="420" y="330" width="110" height="160" as="geometry" />
        </mxCell>
        <mxCell id="sDIMK2-kgTZMhIiAH838-61" value="Machine de Turing" style="rounded=1;whiteSpace=wrap;html=1;" parent="sDIMK2-kgTZMhIiAH838-65" vertex="1">
          <mxGeometry y="120" width="110" height="40" as="geometry" />
        </mxCell>
        <mxCell id="sDIMK2-kgTZMhIiAH838-62" value="" style="ellipse;whiteSpace=wrap;html=1;aspect=fixed;" parent="sDIMK2-kgTZMhIiAH838-65" vertex="1">
          <mxGeometry x="50" y="30" width="10" height="10" as="geometry" />
        </mxCell>
        <mxCell id="sDIMK2-kgTZMhIiAH838-63" style="edgeStyle=orthogonalEdgeStyle;rounded=0;orthogonalLoop=1;jettySize=auto;html=1;exitX=0.5;exitY=0;exitDx=0;exitDy=0;entryX=0.5;entryY=1;entryDx=0;entryDy=0;endArrow=none;endFill=0;" parent="sDIMK2-kgTZMhIiAH838-65" source="sDIMK2-kgTZMhIiAH838-61" target="sDIMK2-kgTZMhIiAH838-62" edge="1">
          <mxGeometry relative="1" as="geometry" />
        </mxCell>
        <mxCell id="sDIMK2-kgTZMhIiAH838-64" value="1936" style="text;strokeColor=none;align=center;fillColor=none;html=1;verticalAlign=middle;whiteSpace=wrap;rounded=0;" parent="sDIMK2-kgTZMhIiAH838-65" vertex="1">
          <mxGeometry x="25" width="60" height="30" as="geometry" />
        </mxCell>
        <mxCell id="sDIMK2-kgTZMhIiAH838-69" style="edgeStyle=orthogonalEdgeStyle;rounded=0;orthogonalLoop=1;jettySize=auto;html=1;exitX=1;exitY=0.5;exitDx=0;exitDy=0;entryX=0;entryY=0.5;entryDx=0;entryDy=0;endArrow=none;endFill=0;" parent="1" source="sDIMK2-kgTZMhIiAH838-11" target="sDIMK2-kgTZMhIiAH838-16" edge="1">
          <mxGeometry relative="1" as="geometry" />
        </mxCell>
        <mxCell id="sDIMK2-kgTZMhIiAH838-70" style="edgeStyle=orthogonalEdgeStyle;rounded=0;orthogonalLoop=1;jettySize=auto;html=1;exitX=1;exitY=0.5;exitDx=0;exitDy=0;entryX=0;entryY=0.5;entryDx=0;entryDy=0;endArrow=none;endFill=0;" parent="1" source="sDIMK2-kgTZMhIiAH838-16" target="sDIMK2-kgTZMhIiAH838-62" edge="1">
          <mxGeometry relative="1" as="geometry" />
        </mxCell>
        <mxCell id="sDIMK2-kgTZMhIiAH838-71" style="edgeStyle=orthogonalEdgeStyle;rounded=0;orthogonalLoop=1;jettySize=auto;html=1;exitX=1;exitY=0.5;exitDx=0;exitDy=0;entryX=0;entryY=0.5;entryDx=0;entryDy=0;endArrow=none;endFill=0;" parent="1" source="sDIMK2-kgTZMhIiAH838-62" target="sDIMK2-kgTZMhIiAH838-25" edge="1">
          <mxGeometry relative="1" as="geometry" />
        </mxCell>
        <mxCell id="sDIMK2-kgTZMhIiAH838-72" style="edgeStyle=orthogonalEdgeStyle;rounded=0;orthogonalLoop=1;jettySize=auto;html=1;exitX=1;exitY=0.5;exitDx=0;exitDy=0;entryX=0;entryY=0.5;entryDx=0;entryDy=0;endArrow=none;endFill=0;" parent="1" source="sDIMK2-kgTZMhIiAH838-25" target="sDIMK2-kgTZMhIiAH838-29" edge="1">
          <mxGeometry relative="1" as="geometry" />
        </mxCell>
        <mxCell id="sDIMK2-kgTZMhIiAH838-73" style="edgeStyle=orthogonalEdgeStyle;rounded=0;orthogonalLoop=1;jettySize=auto;html=1;exitX=1;exitY=0.5;exitDx=0;exitDy=0;entryX=0;entryY=0.5;entryDx=0;entryDy=0;endArrow=none;endFill=0;" parent="1" source="sDIMK2-kgTZMhIiAH838-29" target="sDIMK2-kgTZMhIiAH838-37" edge="1">
          <mxGeometry relative="1" as="geometry" />
        </mxCell>
        <mxCell id="sDIMK2-kgTZMhIiAH838-74" style="edgeStyle=orthogonalEdgeStyle;rounded=0;orthogonalLoop=1;jettySize=auto;html=1;exitX=1;exitY=0.5;exitDx=0;exitDy=0;entryX=0;entryY=0.5;entryDx=0;entryDy=0;endArrow=none;endFill=0;" parent="1" source="sDIMK2-kgTZMhIiAH838-37" target="sDIMK2-kgTZMhIiAH838-45" edge="1">
          <mxGeometry relative="1" as="geometry" />
        </mxCell>
        <mxCell id="sDIMK2-kgTZMhIiAH838-75" style="edgeStyle=orthogonalEdgeStyle;rounded=0;orthogonalLoop=1;jettySize=auto;html=1;exitX=1;exitY=0.5;exitDx=0;exitDy=0;entryX=0;entryY=0.5;entryDx=0;entryDy=0;endArrow=none;endFill=0;" parent="1" source="sDIMK2-kgTZMhIiAH838-45" target="sDIMK2-kgTZMhIiAH838-49" edge="1">
          <mxGeometry relative="1" as="geometry" />
        </mxCell>
        <mxCell id="sDIMK2-kgTZMhIiAH838-80" value="Calcul mécanique" style="text;strokeColor=none;align=center;fillColor=none;html=1;verticalAlign=top;whiteSpace=wrap;rounded=0;" parent="1" vertex="1">
          <mxGeometry x="270" y="500" width="60" height="30" as="geometry" />
        </mxCell>
        <mxCell id="sDIMK2-kgTZMhIiAH838-81" value="" style="endArrow=none;dashed=1;html=1;dashPattern=1 3;strokeWidth=2;rounded=0;" parent="1" edge="1">
          <mxGeometry width="50" height="50" relative="1" as="geometry">
            <mxPoint x="460" y="504" as="sourcePoint" />
            <mxPoint x="460" y="539" as="targetPoint" />
            <Array as="points">
              <mxPoint x="460" y="534" />
            </Array>
          </mxGeometry>
        </mxCell>
        <mxCell id="sDIMK2-kgTZMhIiAH838-82" value="Relais" style="text;strokeColor=none;align=center;fillColor=none;html=1;verticalAlign=top;whiteSpace=wrap;rounded=0;" parent="1" vertex="1">
          <mxGeometry x="400" y="500" width="60" height="30" as="geometry" />
        </mxCell>
        <mxCell id="sDIMK2-kgTZMhIiAH838-83" value="Tube&amp;nbsp;&lt;br&gt;électronique" style="text;strokeColor=none;align=center;fillColor=none;html=1;verticalAlign=top;whiteSpace=wrap;rounded=0;" parent="1" vertex="1">
          <mxGeometry x="474" y="500" width="60" height="30" as="geometry" />
        </mxCell>
        <mxCell id="sDIMK2-kgTZMhIiAH838-84" value="Transistor" style="text;strokeColor=none;align=center;fillColor=none;html=1;verticalAlign=top;whiteSpace=wrap;rounded=0;" parent="1" vertex="1">
          <mxGeometry x="560" y="500" width="60" height="30" as="geometry" />
        </mxCell>
        <mxCell id="sDIMK2-kgTZMhIiAH838-85" value="" style="endArrow=none;dashed=1;html=1;dashPattern=1 3;strokeWidth=2;rounded=0;" parent="1" edge="1">
          <mxGeometry width="50" height="50" relative="1" as="geometry">
            <mxPoint x="550" y="448" as="sourcePoint" />
            <mxPoint x="550" y="538" as="targetPoint" />
            <Array as="points">
              <mxPoint x="550" y="533" />
            </Array>
          </mxGeometry>
        </mxCell>
        <mxCell id="sDIMK2-kgTZMhIiAH838-86" value="" style="endArrow=none;dashed=1;html=1;dashPattern=1 3;strokeWidth=2;rounded=0;" parent="1" edge="1">
          <mxGeometry width="50" height="50" relative="1" as="geometry">
            <mxPoint x="630" y="448" as="sourcePoint" />
            <mxPoint x="630" y="538" as="targetPoint" />
            <Array as="points">
              <mxPoint x="630" y="533" />
            </Array>
          </mxGeometry>
        </mxCell>
        <mxCell id="sDIMK2-kgTZMhIiAH838-87" value="Micro-processeur" style="text;strokeColor=none;align=center;fillColor=none;html=1;verticalAlign=top;whiteSpace=wrap;rounded=0;" parent="1" vertex="1">
          <mxGeometry x="635" y="500" width="60" height="30" as="geometry" />
        </mxCell>
        <mxCell id="sDIMK2-kgTZMhIiAH838-88" value="" style="endArrow=none;dashed=1;html=1;dashPattern=1 3;strokeWidth=2;rounded=0;" parent="1" edge="1">
          <mxGeometry width="50" height="50" relative="1" as="geometry">
            <mxPoint x="354.71" y="447" as="sourcePoint" />
            <mxPoint x="354.71" y="537" as="targetPoint" />
          </mxGeometry>
        </mxCell>
        <mxCell id="sDIMK2-kgTZMhIiAH838-89" value="Cartes&lt;br&gt;Perf-&lt;br&gt;orées" style="text;strokeColor=none;align=center;fillColor=none;html=1;verticalAlign=top;whiteSpace=wrap;rounded=0;" parent="1" vertex="1">
          <mxGeometry x="350" y="500" width="60" height="30" as="geometry" />
        </mxCell>
      </root>
    </mxGraphModel>
  </diagram>
</mxfile>
